<?xml version="1.0" encoding="UTF-8"?>
<svg xmlns="http://www.w3.org/2000/svg" width="820" height="280" viewBox="0 0 820 280" role="img" aria-label="Merge intervals">
  <defs>
    <marker id="arrowhead" markerWidth="8" markerHeight="8" refX="6" refY="3" orient="auto">
      <path d="M0,0 L6,3 L0,6 Z" fill="#0f1c24"/>
    </marker>
  </defs>
  <rect width="820" height="280" fill="#f7faf8"/>
  <text x="24" y="36" font-family="Manrope, Segoe UI, sans-serif" font-size="18" font-weight="700" fill="#0f1c24">Merge intervals</text>
  
  <rect x="40" y="90" width="100" height="44" rx="10" fill="#fff" stroke="#c5d5ce" stroke-width="1.2"/>
<text x="90.0" y="112.0" text-anchor="middle" font-family="Manrope, Segoe UI, sans-serif" font-size="13" font-weight="650" fill="#0f1c24">[1,3]</text>
  <rect x="160" y="90" width="100" height="44" rx="10" fill="#fff" stroke="#c5d5ce" stroke-width="1.2"/>
<text x="210.0" y="112.0" text-anchor="middle" font-family="Manrope, Segoe UI, sans-serif" font-size="13" font-weight="650" fill="#0f1c24">[2,6]</text>
  <rect x="280" y="90" width="100" height="44" rx="10" fill="#fff" stroke="#c5d5ce" stroke-width="1.2"/>
<text x="330.0" y="112.0" text-anchor="middle" font-family="Manrope, Segoe UI, sans-serif" font-size="13" font-weight="650" fill="#0f1c24">[8,10]</text>
  <rect x="400" y="90" width="100" height="44" rx="10" fill="#fff" stroke="#c5d5ce" stroke-width="1.2"/>
<text x="450.0" y="112.0" text-anchor="middle" font-family="Manrope, Segoe UI, sans-serif" font-size="13" font-weight="650" fill="#0f1c24">[15,18]</text>
  <path d="M90 150 V170 H210 V150" fill="none" stroke="#0d7a6f" stroke-width="1.6"/>
  <text x="110" y="195" font-family="IBM Plex Mono, ui-monospace, monospace" font-size="12" fill="#0d7a6f">overlap → merge</text>
  <rect x="40" y="220" width="120" height="40" rx="10" fill="#f7ddd4" stroke="#c5d5ce" stroke-width="1.2"/>
<text x="100.0" y="240.0" text-anchor="middle" font-family="Manrope, Segoe UI, sans-serif" font-size="13" font-weight="650" fill="#0f1c24">[1,6]</text>
  <rect x="180" y="220" width="120" height="40" rx="10" fill="#d7ebe7" stroke="#c5d5ce" stroke-width="1.2"/>
<text x="240.0" y="240.0" text-anchor="middle" font-family="Manrope, Segoe UI, sans-serif" font-size="13" font-weight="650" fill="#0f1c24">[8,10]</text>
  <rect x="320" y="220" width="120" height="40" rx="10" fill="#f3e8d8" stroke="#c5d5ce" stroke-width="1.2"/>
<text x="380.0" y="240.0" text-anchor="middle" font-family="Manrope, Segoe UI, sans-serif" font-size="13" font-weight="650" fill="#0f1c24">[15,18]</text>
  <text x="480" y="245" font-family="IBM Plex Mono, ui-monospace, monospace" font-size="11" fill="#3a4a54">Sort by start, then one linear pass.</text>

</svg>
