<?xml version="1.0" encoding="UTF-8"?>
<svg xmlns="http://www.w3.org/2000/svg" width="820" height="280" viewBox="0 0 820 280" role="img" aria-label="Distributed rate limiter">
  <defs>
    <marker id="arrowhead" markerWidth="8" markerHeight="8" refX="6" refY="3" orient="auto">
      <path d="M0,0 L6,3 L0,6 Z" fill="#0f1c24"/>
    </marker>
  </defs>
  <rect width="820" height="280" fill="#f7faf8"/>
  <text x="24" y="36" font-family="Manrope, Segoe UI, sans-serif" font-size="18" font-weight="700" fill="#0f1c24">Distributed rate limiter</text>
  
  <rect x="40" y="110" width="110" height="50" rx="10" fill="#f3e8d8" stroke="#c5d5ce" stroke-width="1.2"/>
<text x="95.0" y="135.0" text-anchor="middle" font-family="Manrope, Segoe UI, sans-serif" font-size="13" font-weight="650" fill="#0f1c24">Request</text>
  <rect x="180" y="110" width="130" height="50" rx="10" fill="#f7ddd4" stroke="#c5d5ce" stroke-width="1.2"/>
<text x="245.0" y="135.0" text-anchor="middle" font-family="Manrope, Segoe UI, sans-serif" font-size="13" font-weight="650" fill="#0f1c24">API gateway</text>
  <rect x="340" y="110" width="160" height="50" rx="10" fill="#d7ebe7" stroke="#c5d5ce" stroke-width="1.2"/>
<text x="420.0" y="135.0" text-anchor="middle" font-family="Manrope, Segoe UI, sans-serif" font-size="13" font-weight="650" fill="#0f1c24">Redis token bucket</text>
  <rect x="540" y="70" width="140" height="44" rx="10" fill="#fff" stroke="#c5d5ce" stroke-width="1.2"/>
<text x="610.0" y="92.0" text-anchor="middle" font-family="Manrope, Segoe UI, sans-serif" font-size="13" font-weight="650" fill="#0f1c24">Allow → svc</text>
  <rect x="540" y="160" width="140" height="44" rx="10" fill="#f3e8d8" stroke="#c5d5ce" stroke-width="1.2"/>
<text x="610.0" y="182.0" text-anchor="middle" font-family="Manrope, Segoe UI, sans-serif" font-size="13" font-weight="650" fill="#0f1c24">429 Retry-After</text>
  <path d="M155 135 H175" stroke="#0f1c24" stroke-width="1.3" marker-end="url(#arrowhead)"/>
  <path d="M315 135 H335" stroke="#0f1c24" stroke-width="1.3" marker-end="url(#arrowhead)"/>
  <path d="M505 120 H520 V92 H535" fill="none" stroke="#0f1c24" stroke-width="1.2"/>
  <path d="M505 145 H520 V182 H535" fill="none" stroke="#0f1c24" stroke-width="1.2"/>
  <text x="40" y="240" font-family="IBM Plex Mono, ui-monospace, monospace" font-size="11" fill="#3a4a54">Atomic Lua/INCR in Redis. Token bucket allows controlled bursts.</text>

</svg>
