<?xml version="1.0" encoding="UTF-8"?>
<svg xmlns="http://www.w3.org/2000/svg" width="820" height="280" viewBox="0 0 820 280" role="img" aria-label="Word Ladder BFS">
  <defs>
    <marker id="arrowhead" markerWidth="8" markerHeight="8" refX="6" refY="3" orient="auto">
      <path d="M0,0 L6,3 L0,6 Z" fill="#0f1c24"/>
    </marker>
  </defs>
  <rect width="820" height="280" fill="#f7faf8"/>
  <text x="24" y="36" font-family="Manrope, Segoe UI, sans-serif" font-size="18" font-weight="700" fill="#0f1c24">Word Ladder BFS</text>
  
  <rect x="40" y="110" width="100" height="48" rx="10" fill="#f3e8d8" stroke="#c5d5ce" stroke-width="1.2"/>
<text x="90.0" y="128.0" text-anchor="middle" font-family="Manrope, Segoe UI, sans-serif" font-size="13" font-weight="650" fill="#0f1c24">hit</text>
<text x="90.0" y="148.0" text-anchor="middle" font-family="IBM Plex Mono, ui-monospace, monospace" font-size="10" fill="#3a4a54">begin</text>
  <rect x="200" y="70" width="100" height="48" rx="10" fill="#d7ebe7" stroke="#c5d5ce" stroke-width="1.2"/>
<text x="250.0" y="94.0" text-anchor="middle" font-family="Manrope, Segoe UI, sans-serif" font-size="13" font-weight="650" fill="#0f1c24">hot</text>
  <rect x="200" y="160" width="100" height="48" rx="10" fill="#fff" stroke="#c5d5ce" stroke-width="1.2"/>
<text x="250.0" y="184.0" text-anchor="middle" font-family="Manrope, Segoe UI, sans-serif" font-size="13" font-weight="650" fill="#0f1c24">hip</text>
  <rect x="360" y="110" width="100" height="48" rx="10" fill="#f7ddd4" stroke="#c5d5ce" stroke-width="1.2"/>
<text x="410.0" y="134.0" text-anchor="middle" font-family="Manrope, Segoe UI, sans-serif" font-size="13" font-weight="650" fill="#0f1c24">dot</text>
  <rect x="520" y="110" width="100" height="48" rx="10" fill="#d7ebe7" stroke="#c5d5ce" stroke-width="1.2"/>
<text x="570.0" y="134.0" text-anchor="middle" font-family="Manrope, Segoe UI, sans-serif" font-size="13" font-weight="650" fill="#0f1c24">dog</text>
  <rect x="680" y="110" width="100" height="48" rx="10" fill="#f3e8d8" stroke="#c5d5ce" stroke-width="1.2"/>
<text x="730.0" y="128.0" text-anchor="middle" font-family="Manrope, Segoe UI, sans-serif" font-size="13" font-weight="650" fill="#0f1c24">cog</text>
<text x="730.0" y="148.0" text-anchor="middle" font-family="IBM Plex Mono, ui-monospace, monospace" font-size="10" fill="#3a4a54">end</text>
  <path d="M145 134 H195" stroke="#0f1c24" stroke-width="1.3" marker-end="url(#arrowhead)"/>
  <path d="M300 94 H340 V134 H355" fill="none" stroke="#0f1c24" stroke-width="1.2"/>
  <path d="M465 134 H515" stroke="#0f1c24" stroke-width="1.3" marker-end="url(#arrowhead)"/>
  <path d="M625 134 H675" stroke="#0f1c24" stroke-width="1.3" marker-end="url(#arrowhead)"/>
  <text x="40" y="240" font-family="IBM Plex Mono, ui-monospace, monospace" font-size="11" fill="#3a4a54">Implicit graph: edge if Hamming distance 1. BFS = shortest transformation length.</text>

</svg>
